<svg xmlns="http://www.w3.org/2000/svg" width="608" height="634" viewBox="0 0 608 634">
    <defs>
        <linearGradient id="1q3c2m9gsa" x1="0%" x2="100%" y1="50.001%" y2="50.001%">
            <stop offset="0%" stop-color="#F66"/>
            <stop offset="17%" stop-color="#FF6A61"/>
            <stop offset="39%" stop-color="#FE7651"/>
            <stop offset="62%" stop-color="#FC8A38"/>
            <stop offset="87%" stop-color="#F9A515"/>
            <stop offset="100%" stop-color="#F8B500"/>
        </linearGradient>
        <linearGradient id="3c2zaxrgib" x1="0%" x2="100%" y1="50.003%" y2="50.003%">
            <stop offset="0%" stop-color="#C6CCDC"/>
            <stop offset="100%" stop-color="#DFE3EC"/>
        </linearGradient>
        <linearGradient id="np2pi5uctc" x1="71.071%" x2="28.929%" y1="71.141%" y2="28.862%">
            <stop offset="0%" stop-color="#99AEFF" stop-opacity=".5"/>
            <stop offset="8%" stop-color="#A7B9FB" stop-opacity=".6"/>
            <stop offset="21%" stop-color="#B8C6F7" stop-opacity=".72"/>
            <stop offset="34%" stop-color="#C6D0F3" stop-opacity=".82"/>
            <stop offset="47%" stop-color="#D1D9F0" stop-opacity=".9"/>
            <stop offset="62%" stop-color="#D9DEEE" stop-opacity=".96"/>
            <stop offset="78%" stop-color="#DEE2EC" stop-opacity=".99"/>
            <stop offset="100%" stop-color="#DFE3EC"/>
        </linearGradient>
        <linearGradient id="kgiy1clvyd" x1="-.133%" x2="100.133%" y1="50%" y2="50%">
            <stop offset="0%" stop-color="#F66"/>
            <stop offset="1%" stop-color="#FA6566"/>
            <stop offset="11%" stop-color="#C85A6A"/>
            <stop offset="22%" stop-color="#9C4F6E"/>
            <stop offset="33%" stop-color="#774771"/>
            <stop offset="44%" stop-color="#584073"/>
            <stop offset="56%" stop-color="#413B75"/>
            <stop offset="68%" stop-color="#303776"/>
            <stop offset="82%" stop-color="#263577"/>
            <stop offset="100%" stop-color="#233477"/>
        </linearGradient>
        <linearGradient id="0xnu1ydoje" x1="-.066%" x2="100.066%" y1="50.002%" y2="50.002%">
            <stop offset="0%" stop-color="#F66"/>
            <stop offset="1%" stop-color="#FA6566"/>
            <stop offset="11%" stop-color="#C85A6A"/>
            <stop offset="22%" stop-color="#9C4F6E"/>
            <stop offset="33%" stop-color="#774771"/>
            <stop offset="44%" stop-color="#584073"/>
            <stop offset="56%" stop-color="#413B75"/>
            <stop offset="68%" stop-color="#303776"/>
            <stop offset="82%" stop-color="#263577"/>
            <stop offset="100%" stop-color="#233477"/>
        </linearGradient>
        <linearGradient id="9c2mewsthf" x1="-.066%" x2="100.066%" y1="49.998%" y2="49.998%">
            <stop offset="0%" stop-color="#F66"/>
            <stop offset="1%" stop-color="#FA6566"/>
            <stop offset="11%" stop-color="#C85A6A"/>
            <stop offset="22%" stop-color="#9C4F6E"/>
            <stop offset="33%" stop-color="#774771"/>
            <stop offset="44%" stop-color="#584073"/>
            <stop offset="56%" stop-color="#413B75"/>
            <stop offset="68%" stop-color="#303776"/>
            <stop offset="82%" stop-color="#263577"/>
            <stop offset="100%" stop-color="#233477"/>
        </linearGradient>
    </defs>
    <g fill="none" fill-rule="evenodd">
        <g>
            <g fill-rule="nonzero">
                <path fill="#FFF" stroke="#99AEFF" d="M0.5 608.32L0.5 234.53 405.89 0.43"/>
                <path fill="#FFF" stroke="#4D66CB" d="M13.46 615.26L13.46 241.47 418.86 7.37"/>
                <path fill="url(#1q3c2m9gsa)" d="M434.03 15.06L434.03 388.86 28.63 622.95 28.63 249.16z"/>
            </g>
            <g>
                <path fill="#FFF" fill-rule="nonzero" stroke="#233477" d="M406.23 0.33L406.23 374.12 0.83 608.21 0.83 234.43z" transform="translate(43 24)"/>
                <path fill="#233477" d="M40.38 249.45c-.293-.581-.767-1.052-1.35-1.34-.48-.234-1.028-.28-1.54-.13v-.14c1.694-2.064 2.657-4.631 2.74-7.3 0-2.06-.48-3.4-1.45-4-.97-.6-2.43-.38-4.39.75l-6.36 3.59c-.307.163-.555.419-.71.73-.171.38-.256.793-.25 1.21v23.55c-.04.323.038.65.22.92.15.14.39.11.71-.07l6.49-3.75c1.993-1.108 3.649-2.736 4.79-4.71 1.1-2.023 1.659-4.297 1.62-6.6.05-.932-.13-1.862-.52-2.71zm-10.43-5.5l4.35-2.52c1.91-1.1 2.86-.58 2.86 1.59-.01 1.008-.278 1.996-.78 2.87-.482.897-1.202 1.644-2.08 2.16l-4.35 2.52v-6.62zm7.2 12.83c-.482.913-1.218 1.667-2.12 2.17l-5.08 3v-7.11l4.66-2.71c.688-.537 1.585-.725 2.43-.51.57.26.85.94.85 2.05.01 1.081-.245 2.149-.74 3.11zM82.17 209.03l-.22 1.71-.33.19c-.723.39-1.325.971-1.74 1.68-.384.763-.624 1.59-.71 2.44l-2.61 20c-.07.57-.11.94-.11 1.11 0 1 .61 1.16 1.82.45l.32-.18-.22 1.71-7.34 4.2.2-1.7.33-.19c1.448-.891 2.37-2.433 2.47-4.13l2.62-20c.057-.364.09-.732.1-1.1 0-1-.61-1.16-1.82-.46l-.32.19.22-1.71 7.34-4.21zM119.5 187.95c3.66-2.12 5.3-.06 5.93 1.08l-1.88 3.17c-.383-.68-.961-1.231-1.66-1.58-.853-.223-1.76-.078-2.5.4-2.158 1.232-3.502 3.515-3.53 6 0 3 2.24 2.47 4 2l7.94-4.59c.69-.4 1.26.12 1.26 1.16.008 1.018-.458 1.983-1.26 2.61l-2.77 1.63c.539.965.782 2.068.7 3.17.078 4.64-2.323 8.97-6.3 11.36-3.65 2.11-5.73.56-6.68-1l1.94-3.26c.387.853 1.139 1.486 2.046 1.72.907.236 1.871.048 2.624-.51 1.749-.935 3.052-2.53 3.62-4.43.62-1.94.47-4.21-1-4.49-.445-.082-.899-.106-1.35-.07l-10.44 6c-.7.4-1.26-.11-1.26-1.15-.014-1.02.453-1.987 1.26-2.61l4.23-2.45c-.748-.968-1.105-2.181-1-3.4.031-4.396 2.33-8.465 6.08-10.76zM150.49 192.6v5.64l22.67-13.13v-5.65l-22.67 13.14zm17.07-14.85l-3.4-15c-.08-.36-.32-.49-.6-.33l-3.47 2c-.321.244-.536.602-.6 1l-3.4 18.91c-.005.093-.005.187 0 .28 0 .52.29.78.63.57l.93-.53c.329-.238.548-.599.61-1l.87-4.82c.06-.4.276-.759.6-1l4.26-2.47c.27-.16.52 0 .6.33l.88 3.8c.08.35.32.48.6.32l.92-.54c.068-.035.13-.083.18-.14.327-.38.47-.885.39-1.38zm-4.73-5.46l-2 1.16-.18.06c-.34 0-.53-.37-.42-.93l.76-4.21c.058-.4.274-.76.6-1l.44-.26c.27-.16.52 0 .6.33l.76 3.32c.01.083.01.167 0 .25.01.488-.195.956-.56 1.28zM213.46 158.04v5.65l22.67-13.12v-5.64l-22.67 13.11zm9-24l-5.79 12 1 .91-4.22 8.72 5.92-3.42 1.37-2.87.82.78c.25.21.65 0 .9-.53l5.21-10.8-5.21-4.79zm9.9-9.49l-1.77-1.7c-.94-.85-2.44 0-3.37 1.94l-3.69 7.6 2.25 2.06.67.64 2.26 2.08 3.65-7.58c.93-1.96.93-4.21.01-5.07l-.01.03zM294.03 86.94v-1.83c0-1-.57-1.56-1.26-1.16l-15.11 8.75c-.802.627-1.268 1.592-1.26 2.61v7.53c0 1 .57 1.55 1.26 1.15l15.11-8.74c.802-.627 1.268-1.592 1.26-2.61v-1.89l1.26-.73v7.53l-12.59 7.29v16.94c0 1 .56 1.55 1.25 1.15l2.52-1.46c.807-.623 1.274-1.59 1.26-2.61v-13.22l10.08-5.83V84.75l-3.78 2.19zM196.67 151.23c.39-.79 1-1.13 1.39-.76.387.657.387 1.473 0 2.13l-5.32 11.33c-.39.82-1 1.19-1.41.81l-5.3-5.16c-.374-.671-.374-1.489 0-2.16.38-.81 1-1.18 1.38-.84l4.62 4.53 4.64-9.88zM260.9 114.11c.39-.8 1-1.14 1.38-.77.383.658.383 1.472 0 2.13l-5.25 11.29c-.39.83-1 1.2-1.41.82l-5.32-5.17c-.38-.67-.38-1.49 0-2.16.38-.81 1-1.18 1.39-.84l4.62 4.48 4.59-9.78z" transform="translate(43 24)"/>
                <path stroke="#233477" d="M20.95 292.69L303.93 129.29" transform="translate(43 24)"/>
            </g>
            <g>
                <path fill="#233477" stroke="#FFF" d="M152.53 67.38L0.37 155.57 0.37 88.69 152.53 0.5z" transform="translate(364 13)"/>
                <path fill="#FFF" d="M33.03 94.11l-14.36 8.32c-.651.512-1.022 1.302-1 2.13 0 .85.45 1.27 1 .94l14.36-8.28c.651-.508 1.022-1.295 1-2.12.06-.86-.39-1.27-1-.99zm-6.16 9.71l-8.2 4.75c-.653.51-1.024 1.301-1 2.13 0 .85.45 1.26 1 .94l8.2-4.76c.647-.51 1.017-1.296 1-2.12.06-.81-.4-1.23-.97-.9l-.03-.04zm0 12.27l-8.2 4.76c-.651.508-1.022 1.295-1 2.12 0 .85.45 1.27 1 .94l8.2-4.75c.649-.514 1.019-1.302 1-2.13.06-.81-.4-1.22-.97-.92l-.03-.02zm6.16-9.7l-14.36 8.32c-.651.508-1.022 1.295-1 2.12 0 .86.45 1.27 1 .95l14.36-8.28c.651-.512 1.022-1.302 1-2.13.06-.85-.39-1.26-1-.94v-.04zM69.03 73.36l-14.38 8.32c-.646.516-1.016 1.303-1 2.13 0 .85.46 1.26 1 .94l14.38-8.32c.647-.51 1.017-1.296 1-2.12 0-.86-.46-1.27-1-.95zm-3.08 7.92l-8.21 4.76c-.647.51-1.017 1.296-1 2.12 0 .85.46 1.27 1 .94l8.21-4.75c.649-.514 1.019-1.302 1-2.13 0-.85-.46-1.26-1.03-.94h.03zm0 12.28l-8.21 4.75c-.649.514-1.019 1.302-1 2.13 0 .84.46 1.26 1 .94l8.21-4.76c.645-.513 1.014-1.296 1-2.12 0-.85-.46-1.28-1.03-.94h.03zm3.08-7.92l-14.38 8.32c-.645.513-1.014 1.296-1 2.12 0 .85.46 1.27 1 .94l14.38-8.31c.644-.518 1.013-1.304 1-2.13 0-.85-.46-1.28-1-.94zM103.92 53.16l-14.38 8.32c-.647.51-1.017 1.296-1 2.12 0 .86.46 1.27 1 .95l14.38-8.32c.645-.517 1.014-1.303 1-2.13.02-.85-.44-1.26-1-.94zm0 6.14l-8.22 4.75c-.648.515-1.017 1.303-1 2.13 0 .85.46 1.26 1 .94l8.22-4.75c.643-.519 1.011-1.304 1-2.13.02-.85-.44-1.27-1-.94zm0 12.27l-8.22 4.76c-.647.51-1.017 1.296-1 2.12 0 .85.46 1.27 1 1l8.22-4.76c.645-.513 1.014-1.296 1-2.12.02-.91-.44-1.32-1-1zm0-6.14l-14.38 8.32c-.648.515-1.017 1.303-1 2.13 0 .85.46 1.27 1 .94l14.38-8.32c.645-.513 1.014-1.296 1-2.12.02-.86-.44-1.27-1-.95zM138.82 32.96l-14.37 8.32c-.648.515-1.017 1.303-1 2.13 0 .85.46 1.27 1 .94l14.37-8.32c.649-.514 1.019-1.302 1-2.13.02-.79-.43-1.27-1-.94zm0 6.14l-14.37 8.31c-.644.518-1.013 1.304-1 2.13 0 .85.46 1.28 1 .94l14.37-8.32c.648-.51 1.019-1.295 1-2.12.02-.85-.43-1.27-1-.93v-.01zm0 6.13l-14.37 8.32c-.648.515-1.017 1.303-1 2.13 0 .85.46 1.27 1 .94l14.37-8.32c.648-.51 1.019-1.295 1-2.12.02-.86-.43-1.27-1-.95zm0 6.14l-14.37 8.32c-.647.51-1.017 1.296-1 2.12 0 .86.46 1.27 1 .95l14.37-8.32c.65-.513 1.02-1.302 1-2.13.02-.85-.43-1.26-1-.94z" transform="translate(364 13)"/>
            </g>
            <g stroke="#A0AAC5">
                <path d="M163.51 37.63L.95 131.84M163.51 74.73L.95 168.94M.95 94.73L163.51.54" transform="translate(63 271)"/>
            </g>
            <g>
                <path fill="url(#3c2zaxrgib)" d="M187.71 0.94L0.53 108.85 0.53 175.73 93.13 122.33 102.31 133.86 110.86 112.11 187.71 67.81z" transform="translate(261 131)"/>
                <path fill="#FFF" stroke="#233477" d="M202.54 9.31L15.22 117.32 15.22 184.21 107.82 130.8 117 142.34 125.54 120.58 202.54 76.18z" transform="translate(261 131)"/>
                <path stroke="#233477" d="M149.99 59.05L155.17 56.12 155.17 84.32 127.19 100.16 127.19 71.96 132.44 68.99M135.67 67.07L146.69 60.83M141.18 69.95L141.18 57.94M127.75 85.37L155.17 69.84M141.18 92.24L141.18 77.77M59.39 138.57L31.41 154.41 31.41 123.9 59.39 108.06z" transform="translate(261 131)"/>
                <path fill="#F9F9FB" stroke="#233477" d="M59.39 115.68L31.41 131.52 31.41 123.9 59.39 108.06z" transform="translate(261 131)"/>
                <path stroke="#233477" d="M45.4 118.72L45.4 146.49M59.39 126.85L31.41 142.7M97.53 116.97L69.55 132.81 69.55 102.3 97.53 86.46zM75.56 106.23L91.51 114.59M75.56 123.63L91.51 97.2M168.52 76.42L163.35 79.35 163.35 51.15 191.32 35.3 191.32 63.51 186.07 66.48M182.84 68.4L171.83 74.64M177.33 65.51L177.33 77.53M190.76 50.1L163.34 65.62M177.33 43.23L177.33 57.7M112.72 69.42L112.72 120.49" transform="translate(261 131)"/>
            </g>
            <g>
                <path fill="#FFF" stroke="#99AEFF" d="M130.31 102.36L65.36 64.93 65.36 0.73 130.31 38.16z" transform="translate(477 97)"/>
                <path stroke="#99AEFF" d="M72.09 54.84L72.09 25.75 78.24 29.09 78.24 41.09 90.72 47.87 90.72 35.87 96.86 39.2 96.86 68.29 90.72 64.96 90.72 52.96 78.24 46.18 78.24 58.18zM112.51 77.19c-2.075-1.118-3.981-2.525-5.66-4.18-1.559-1.508-2.874-3.249-3.9-5.16-.898-1.62-1.402-3.429-1.47-5.28l6.19 3.37c.058.794.297 1.564.7 2.25.467.807 1.05 1.541 1.73 2.18.732.682 1.548 1.267 2.43 1.74.762.445 1.605.734 2.48.85.615.125 1.254-.055 1.712-.484.46-.429.682-1.054.598-1.676-.02-.847-.243-1.677-.65-2.42-.484-.9-1.108-1.717-1.85-2.42-.852-.81-1.81-1.5-2.85-2.05l-2.71-1.48v-4.51l2.71 1.47c.76.444 1.599.737 2.47.86.594.096 1.2-.064 1.67-.44.432-.451.647-1.068.59-1.69-.008-.762-.182-1.513-.51-2.2-.365-.771-.855-1.478-1.45-2.09-.632-.658-1.364-1.212-2.17-1.64-.704-.414-1.482-.686-2.29-.8-.58-.102-1.178.031-1.66.37-.447.397-.692.973-.67 1.57l-5.92-3.22c-.089-1.369.435-2.706 1.43-3.65 1.067-.827 2.423-1.188 3.76-1 1.89.234 3.71.853 5.35 1.82 1.945 1.045 3.721 2.376 5.27 3.95 1.416 1.427 2.6 3.067 3.51 4.86.791 1.49 1.22 3.144 1.25 4.83 0 1.63-.5 2.72-1.51 3.26-1.285.54-2.74.508-4-.09v.23c1.96 1.26 3.626 2.923 4.89 4.88 1.06 1.615 1.639 3.498 1.67 5.43.128 1.372-.403 2.722-1.43 3.64-1.16.823-2.601 1.144-4 .89-2.01-.291-3.948-.96-5.71-1.97h0z" transform="translate(477 97)"/>
                <path fill="#FFF" stroke="#4D66CB" d="M98.33 121.99L33.38 84.56 33.38 20.36 98.33 57.79z" transform="translate(477 97)"/>
                <path stroke="#4D66CB" d="M40.11 73.48L40.11 44.38 46.26 47.72 46.26 59.72 58.74 66.5 58.74 54.5 64.88 57.84 64.88 86.93 58.74 83.59 58.74 71.59 46.26 64.81 46.26 76.81zM69.78 89.59v-4.43l10.36-4c.763-.315 1.504-.68 2.22-1.09.55-.31 1.02-.744 1.37-1.27.332-.57.495-1.221.47-1.88-.006-.876-.204-1.74-.58-2.53-.403-.841-.94-1.611-1.59-2.28-.67-.694-1.442-1.28-2.29-1.74-.704-.432-1.505-.683-2.33-.73-.6-.03-1.177.24-1.54.72-.403.627-.593 1.367-.54 2.11L69.5 69.3c-.122-1.532.339-3.053 1.29-4.26.945-.962 2.28-1.438 3.62-1.29 1.898.189 3.732.793 5.37 1.77 2.009 1.074 3.846 2.442 5.45 4.06 1.47 1.458 2.689 3.147 3.61 5 .823 1.598 1.268 3.363 1.3 5.16.1 2.157-1.042 4.18-2.94 5.21-1.468.884-3.027 1.608-4.65 2.16l-4.25 1.86v.2l12.22 6.63v5L69.78 89.59z" transform="translate(477 97)"/>
                <path fill="#FFF" stroke="#233477" d="M65.47 140.53L0.52 103.1 0.52 38.9 65.47 76.33z" transform="translate(477 97)"/>
                <g fill="#A0AAC5">
                    <path d="M0 0L0 29.091 6.151 32.431 6.151 20.414 18.636 27.193 18.636 39.209 24.773 42.542 24.773 13.451 18.636 10.119 18.636 22.122 6.151 15.342 6.151 3.34zM29.346 20.494L29.346 25.949 36.008 25.389 36.179 25.482 36.179 48.735 42.329 52.075 42.329 22.984 36.548 19.844z" transform="translate(477 97) translate(11 65)"/>
                </g>
            </g>
            <g>
                <path fill="#FFF" fill-rule="nonzero" d="M382.76 13.41L382.76 186.48 377.05 189.78 11.64 400.78 6.61 403.69 6.61 230.62z" transform="translate(103 219)"/>
                <path fill="url(#np2pi5uctc)" fill-rule="nonzero" d="M346.23 34.5L346.23 179.12 330.05 188.46 264.74 226.17 199.43 263.88 134.12 301.6 68.81 339.31 6.61 375.23 6.61 230.62z" opacity=".5" transform="translate(103 219)"/>
                <path stroke="url(#kgiy1clvyd)" d="M382.76 13.41L382.76 186.48 377.05 189.78 11.64 400.78 6.61 403.69 6.61 230.62z" transform="translate(103 219)"/>
                <path fill="#F66" fill-rule="nonzero" d="M11.64 219.18L11.64 233.23 6.61 236.14.21 239.84.21 225.8zM11.64 394.11L11.64 408.17.21 414.79.21 400.73z" transform="translate(103 219)"/>
                <path fill="#233477" fill-rule="nonzero" d="M388.48.83L388.48 14.88 377.05 21.49 377.05 7.45zM388.48 174.28L388.48 188.34 377.05 194.95 377.05 180.89z" transform="translate(103 219)"/>
                <path stroke="url(#0xnu1ydoje)" d="M6.61 317.26L382.76 100.05" transform="translate(103 219)"/>
                <path stroke="url(#9c2mewsthf)" d="M6.61 273.94L382.76 56.73M6.61 360.59L382.76 143.38" transform="translate(103 219)"/>
                <path stroke="#B1546C" d="M68.81 367.49L68.81 194.7" transform="translate(103 219)"/>
                <path stroke="#734671" d="M134.12 157.01L134.12 329.79" transform="translate(103 219)"/>
                <path stroke="#493D74" d="M199.43 119.53L199.43 292.32" transform="translate(103 219)"/>
                <path stroke="#233477" d="M264.74 81.73L264.74 254.51M330.05 44.01L330.05 216.79" transform="translate(103 219)"/>
            </g>
            <g fill="#233477" fill-rule="nonzero">
                <path d="M6.16 20.33L0.42 25.95 0.42 0.67 18.19 18.44 10.15 18.64 14.59 28.87 10.84 30.77z" transform="translate(492 408)"/>
            </g>
        </g>
    </g>
</svg>
