<svg xmlns="http://www.w3.org/2000/svg" width="38.697" height="38.802" viewBox="0 0 38.697 38.802">
  <g id="_x38_3-facebook" transform="translate(-17.397 -16.75)">
    <g id="Group_27" data-name="Group 27" transform="translate(17.397 16.75)">
      <g id="Group_26" data-name="Group 26" transform="translate(0 0)">
        <path id="Path_32" data-name="Path 32" d="M51.256,16.75H22.234A4.849,4.849,0,0,0,17.4,21.6V50.7a4.849,4.849,0,0,0,4.837,4.851H51.256A4.849,4.849,0,0,0,56.094,50.7V21.6a4.849,4.849,0,0,0-4.837-4.85Zm0,0" transform="translate(-17.397 -16.75)" fill="#7b78aa"/>
        <path id="Path_33" data-name="Path 33" d="M214.491,118.594h-6.046v-4.85c0-1.339,1.084-1.212,2.418-1.212h2.419v-6.063h-4.837a7.265,7.265,0,0,0-7.255,7.275v4.85h-4.837v6.063h4.837v13.338h7.255V124.656h3.628Zm0,0" transform="translate(-181.84 -99.193)" fill="#fcfcfc"/>
      </g>
    </g>
  </g>
</svg>
