<svg xmlns="http://www.w3.org/2000/svg" width="38.802" height="38.802" viewBox="0 0 38.802 38.802">
  <path id="iconfinder_Rounded_Instagram_svg_5282544" d="M34.061,0A4.743,4.743,0,0,1,38.8,4.741V34.061A4.743,4.743,0,0,1,34.061,38.8H4.741A4.743,4.743,0,0,1,0,34.061V4.741A4.743,4.743,0,0,1,4.741,0H34.061ZM19.4,6.139c-3.6,0-4.053.015-5.468.08a9.733,9.733,0,0,0-3.219.617,6.781,6.781,0,0,0-3.879,3.879,9.737,9.737,0,0,0-.617,3.219c-.064,1.415-.08,1.866-.08,5.468s.015,4.053.08,5.468a9.737,9.737,0,0,0,.617,3.219,6.782,6.782,0,0,0,3.879,3.879,9.735,9.735,0,0,0,3.219.616c1.415.065,1.866.08,5.468.08s4.053-.015,5.468-.08a9.735,9.735,0,0,0,3.219-.616,6.782,6.782,0,0,0,3.879-3.879,9.735,9.735,0,0,0,.616-3.219c.065-1.415.08-1.866.08-5.468s-.015-4.053-.08-5.468a9.735,9.735,0,0,0-.616-3.219,6.781,6.781,0,0,0-3.879-3.879,9.733,9.733,0,0,0-3.219-.617c-1.415-.065-1.866-.08-5.468-.08Zm0,2.39c3.541,0,3.961.013,5.359.077a7.343,7.343,0,0,1,2.463.457,4.392,4.392,0,0,1,2.517,2.517,7.339,7.339,0,0,1,.457,2.463c.064,1.4.077,1.818.077,5.359s-.014,3.961-.077,5.359a7.339,7.339,0,0,1-.457,2.463,4.392,4.392,0,0,1-2.517,2.517,7.339,7.339,0,0,1-2.463.457c-1.4.064-1.818.077-5.359.077s-3.961-.014-5.359-.077a7.339,7.339,0,0,1-2.463-.457,4.392,4.392,0,0,1-2.517-2.517,7.34,7.34,0,0,1-.457-2.463c-.064-1.4-.077-1.818-.077-5.359s.013-3.961.077-5.359a7.34,7.34,0,0,1,.457-2.463,4.392,4.392,0,0,1,2.517-2.517,7.343,7.343,0,0,1,2.463-.457c1.4-.064,1.818-.077,5.359-.077Zm0,4.062a6.81,6.81,0,1,0,6.81,6.81,6.81,6.81,0,0,0-6.81-6.81Zm0,11.231A4.421,4.421,0,1,1,23.822,19.4,4.421,4.421,0,0,1,19.4,23.822Zm8.671-11.5A1.591,1.591,0,1,1,26.48,10.73a1.591,1.591,0,0,1,1.592,1.591Z" fill="#7b78aa" fill-rule="evenodd"/>
</svg>
