<svg xmlns="http://www.w3.org/2000/svg" width="38.697" height="38.802" viewBox="0 0 38.697 38.802">
  <g id="Group_40" data-name="Group 40" transform="translate(-1693 -8425)">
    <g id="Group_27" data-name="Group 27" transform="translate(1693 8425)">
      <g id="Group_26" data-name="Group 26" transform="translate(0 0)">
        <path id="Path_32" data-name="Path 32" d="M51.256,16.75H22.234A4.849,4.849,0,0,0,17.4,21.6V50.7a4.849,4.849,0,0,0,4.837,4.851H51.256A4.849,4.849,0,0,0,56.094,50.7V21.6a4.849,4.849,0,0,0-4.837-4.85Zm0,0" transform="translate(-17.397 -16.75)" fill="#7b78aa"/>
      </g>
    </g>
    <g id="_6-twitter" data-name="6-twitter" transform="translate(1697 8370)">
      <path id="Path_34" data-name="Path 34" d="M33.306,18.581a4.842,4.842,0,0,0,2.421-2.905A6.575,6.575,0,0,1,32.7,16.965a4.842,4.842,0,0,0-8.371,4.521h-.224A14.194,14.194,0,0,1,13.937,16.16a4.57,4.57,0,0,0,1.453,6.779s-1.937,0-2.421-.484c0,0-.484,2.905,3.874,4.842a2.336,2.336,0,0,1-1.937,0c0,1.87,1.949,3.39,4.358,3.39,0,1.338-3.25,2.421-7.263,2.421,6.295,4.358,21.306,3.39,22.275-13.074L36.7,17.613Z" transform="translate(-8.737 49.009)" fill="#fff"/>
    </g>
  </g>
</svg>
