<svg xmlns="http://www.w3.org/2000/svg" width="375.581" height="165.223" viewBox="0 0 375.581 165.223"><g transform="translate(-6.684 -1103.646)"><path d="M50,1898.476l29.025-22.8,16.9,8.854,46.015-26.577,26.607,6.115,45.717-40.448,27.022,3.282,54.272-30.367,22.618,8.474,89.319-49.861,3.823-12.5,13.686-8.587" transform="translate(-43.007 -630)" fill="none" stroke="#fff" stroke-width="1"/><g transform="translate(-203.046 -1420)"><path d="M278.769,2470.3v-13.519" transform="translate(26.637 177.633)" fill="none" stroke="snow" stroke-width="1"/><g transform="translate(303.046 2632)" fill="#fff" stroke="snow" stroke-width="1"><circle cx="2.5" cy="2.5" r="2.5" stroke="none"/><circle cx="2.5" cy="2.5" r="2" fill="none"/></g></g><g transform="translate(-140.046 -1449)"><path d="M278.769,2470.3v-13.519" transform="translate(26.637 177.633)" fill="none" stroke="snow" stroke-width="1"/><g transform="translate(303.046 2632)" fill="#fff" stroke="snow" stroke-width="1"><circle cx="2.5" cy="2.5" r="2.5" stroke="none"/><circle cx="2.5" cy="2.5" r="2" fill="none"/></g></g><g transform="translate(-101.046 -1454)"><path d="M278.769,2470.3v-13.519" transform="translate(26.637 177.633)" fill="none" stroke="snow" stroke-width="1"/><g transform="translate(303.046 2632)" fill="#fff" stroke="snow" stroke-width="1"><circle cx="2.5" cy="2.5" r="2.5" stroke="none"/><circle cx="2.5" cy="2.5" r="2" fill="none"/></g></g><g transform="translate(-53.046 -1481)"><path d="M278.769,2470.3v-13.519" transform="translate(26.637 177.633)" fill="none" stroke="snow" stroke-width="1"/><g transform="translate(303.046 2632)" fill="#fff" stroke="snow" stroke-width="1"><circle cx="2.5" cy="2.5" r="2.5" stroke="none"/><circle cx="2.5" cy="2.5" r="2" fill="none"/></g></g></g></svg>