<svg xmlns="http://www.w3.org/2000/svg" width="2059.775" height="958.477" viewBox="0 0 2059.775 958.477">
  <g id="Group_66" data-name="Group 66" transform="translate(-50.68 -2253.653)">
    <path id="Path_8" data-name="Path 8" d="M50,2691.746,209.379,2558.96l92.816,51.578,252.672-154.814,146.1,35.618L952,2255.733l148.377,19.12,298.013-176.889,124.2,49.361,490.454-290.441,20.99-72.8,75.15-50.018" transform="translate(1 520)" fill="none" stroke="#fff" stroke-width="1"/>
    <g id="Group_1" data-name="Group 1" transform="translate(697.073 2978.262)">
      <path id="Path_9" data-name="Path 9" d="M278.769,2483.57v-26.791" transform="translate(-274 -2452)" fill="none" stroke="#fff" stroke-width="1"/>
      <g id="Ellipse_1" data-name="Ellipse 1" transform="translate(-0.073 -0.262)" fill="#fff" stroke="#fff" stroke-width="1">
        <ellipse cx="5" cy="4.5" rx="5" ry="4.5" stroke="none"/>
        <ellipse cx="5" cy="4.5" rx="4.5" ry="4" fill="none"/>
      </g>
    </g>
    <g id="Group_2" data-name="Group 2" transform="translate(550.438 2942.989)">
      <path id="Path_9-2" data-name="Path 9" d="M278.769,2483.57v-26.791" transform="translate(-274 -2452)" fill="none" stroke="snow" stroke-width="1"/>
      <g id="Ellipse_1-2" data-name="Ellipse 1" transform="translate(-0.438 0.011)" fill="#fff" stroke="snow" stroke-width="1">
        <ellipse cx="5" cy="4.5" rx="5" ry="4.5" stroke="none"/>
        <ellipse cx="5" cy="4.5" rx="4.5" ry="4" fill="none"/>
      </g>
    </g>
    <g id="Group_12" data-name="Group 12" transform="translate(948.445 2741.932)">
      <path id="Path_9-3" data-name="Path 9" d="M278.769,2483.57v-26.791" transform="translate(-274 -2452)" fill="none" stroke="snow" stroke-width="1"/>
      <g id="Ellipse_1-3" data-name="Ellipse 1" transform="translate(-0.445 0.068)" fill="#fff" stroke="snow" stroke-width="1">
        <ellipse cx="5" cy="4.5" rx="5" ry="4.5" stroke="none"/>
        <ellipse cx="5" cy="4.5" rx="4.5" ry="4" fill="none"/>
      </g>
    </g>
    <g id="Group_13" data-name="Group 13" transform="translate(1217.458 2687.847)">
      <path id="Path_9-4" data-name="Path 9" d="M278.769,2483.57v-26.791" transform="translate(-274 -2452)" fill="none" stroke="snow" stroke-width="1"/>
      <g id="Ellipse_1-4" data-name="Ellipse 1" transform="translate(-0.458 0.153)" fill="#fff" stroke="snow" stroke-width="1">
        <ellipse cx="5" cy="4.5" rx="5" ry="4.5" stroke="none"/>
        <ellipse cx="5" cy="4.5" rx="4.5" ry="4" fill="none"/>
      </g>
    </g>
    <g id="Group_14" data-name="Group 14" transform="translate(1670.591 2542.052)">
      <path id="Path_9-5" data-name="Path 9" d="M278.769,2483.57v-26.791" transform="translate(-274 -2452)" fill="none" stroke="snow" stroke-width="1"/>
      <g id="Ellipse_1-5" data-name="Ellipse 1" transform="translate(0.409 -0.052)" fill="#fff" stroke="snow" stroke-width="1">
        <ellipse cx="5" cy="4.5" rx="5" ry="4.5" stroke="none"/>
        <ellipse cx="5" cy="4.5" rx="4.5" ry="4" fill="none"/>
      </g>
    </g>
    <g id="Group_11" data-name="Group 11" transform="translate(275 3111.447)">
      <path id="Path_9-6" data-name="Path 9" d="M278.769,2483.57v-26.791" transform="translate(-274 -2452)" fill="none" stroke="snow" stroke-width="1"/>
      <g id="Ellipse_1-6" data-name="Ellipse 1" transform="translate(0 -0.447)" fill="#fff" stroke="snow" stroke-width="1">
        <ellipse cx="5" cy="4.5" rx="5" ry="4.5" stroke="none"/>
        <ellipse cx="5" cy="4.5" rx="4.5" ry="4" fill="none"/>
      </g>
    </g>
  </g>
</svg>
