<svg id="shopping-cart" xmlns="http://www.w3.org/2000/svg" width="41.878" height="31.588" viewBox="0 0 41.878 31.588">
  <path id="Path_3" data-name="Path 3" d="M13.493,19.685H35.743a1.22,1.22,0,0,0,1.18-.714L41.831,5.192a.833.833,0,0,0-.2-.863,1.35,1.35,0,0,0-.98-.392H10.663L9.786.771A1.2,1.2,0,0,0,8.588,0H1.227A1.126,1.126,0,0,0,0,.984a1.126,1.126,0,0,0,1.227.984H7.6l4.43,15.991a3.019,3.019,0,0,0-2.219,2.709c0,1.628,1.651,2.953,3.681,2.953H35.743a1.126,1.126,0,0,0,1.227-.984,1.126,1.126,0,0,0-1.227-.984H13.5a1.127,1.127,0,0,1-1.227-.984A1.126,1.126,0,0,1,13.493,19.685ZM39.024,5.905,34.818,17.716H14.48L11.208,5.905Zm0,0" fill="#8d7a9a"/>
  <path id="Path_4" data-name="Path 4" d="M150,363.983A3.983,3.983,0,1,0,153.983,360,3.988,3.988,0,0,0,150,363.983Zm3.983-1.328a1.328,1.328,0,1,1-1.328,1.328A1.329,1.329,0,0,1,153.983,362.655Zm0,0" transform="translate(-137.946 -336.378)" fill="#8d7a9a"/>
  <path id="Path_5" data-name="Path 5" d="M362,363.983A3.983,3.983,0,1,0,365.983,360,3.988,3.988,0,0,0,362,363.983Zm3.983-1.328a1.328,1.328,0,1,1-1.328,1.328A1.329,1.329,0,0,1,365.983,362.655Zm0,0" transform="translate(-333.399 -336.378)" fill="#8d7a9a"/>
</svg>
